# MagicaVoxel @ Ephtracy

# material
mtllib avventuriero.mtl
usemtl palette

# normals
vn -1 0 0
vn 1 0 0
vn 0 0 1
vn 0 0 -1
vn 0 -1 0
vn 0 1 0

# texcoords
vt 0.0488281 0.5
vt 0.654297 0.5
vt 0.900391 0.5
vt 0.994141 0.5

# verts
v -3.5 10 2.5
v -3.5 10 -2.5
v -3.5 11 2.5
v -3.5 11 -2.5
v -2.5 1 2.5
v -2.5 1 -2.5
v -2.5 6 2.5
v -2.5 6 -2.5
v -2.5 10 3.5
v -2.5 10 2.5
v -2.5 10 -2.5
v -2.5 10 -3.5
v -2.5 11 3.5
v -2.5 11 2.5
v -2.5 11 -2.5
v -2.5 11 -3.5
v -2.5 12 2.5
v -2.5 12 1.5
v -2.5 13 1.5
v -2.5 13 0.5
v -2.5 14 0.5
v -2.5 14 -1.5
v -2.5 15 -1.5
v -2.5 15 -2.5
v -1.5 0 1.5
v -1.5 0 0.5
v -1.5 0 -0.5
v -1.5 0 -1.5
v -1.5 1 1.5
v -1.5 1 0.5
v -1.5 1 -0.5
v -1.5 1 -1.5
v -1.5 4 3.5
v -1.5 4 2.5
v -1.5 4 -2.5
v -1.5 4 -3.5
v -1.5 6 3.5
v -1.5 6 2.5
v -1.5 6 -2.5
v -1.5 6 -3.5
v 1.5 4 1.5
v 1.5 4 -1.5
v 1.5 6 1.5
v 1.5 6 -1.5
v -1.5 13 0.5
v -1.5 13 -2.5
v -1.5 14 0.5
v -1.5 14 -1.5
v -1.5 15 -1.5
v -1.5 15 -2.5
v -0.5 0 1.5
v -0.5 0 0.5
v -0.5 0 -0.5
v -0.5 0 -1.5
v -0.5 1 1.5
v -0.5 1 0.5
v -0.5 1 -0.5
v -0.5 1 -1.5
v -0.5 12 1.5
v -0.5 12 -2.5
v -0.5 13 1.5
v -0.5 13 -2.5
v 0.5 1 2.5
v 0.5 1 0.5
v 0.5 1 -0.5
v 0.5 1 -2.5
v 0.5 4 2.5
v 0.5 4 1.5
v 0.5 4 -1.5
v 0.5 4 -2.5
v 0.5 6 2.5
v 0.5 6 1.5
v 0.5 6 0.5
v 0.5 6 -0.5
v 0.5 6 -1.5
v 0.5 6 -2.5
v 0.5 8 1.5
v 0.5 8 0.5
v 0.5 8 -0.5
v 0.5 8 -1.5
v 0.5 9 1.5
v 0.5 9 0.5
v 0.5 9 -0.5
v 0.5 9 -1.5
v 0.5 10 3.5
v 0.5 10 2.5
v 0.5 10 -2.5
v 0.5 10 -3.5
v 0.5 11 3.5
v 0.5 11 2.5
v 0.5 11 -2.5
v 0.5 11 -3.5
v 0.5 12 2.5
v 0.5 12 -2.5
v 1.5 10 2.5
v 1.5 10 -2.5
v 1.5 11 2.5
v 1.5 11 -2.5
v 3.5 4 3.5
v 3.5 4 1.5
v 3.5 4 -1.5
v 3.5 4 -3.5
v 3.5 6 3.5
v 3.5 6 1.5
v 3.5 6 -1.5
v 3.5 6 -3.5
v -2.5 10 3.5
v -2.5 11 3.5
v -1.5 4 3.5
v -1.5 6 3.5
v 0.5 10 3.5
v 0.5 11 3.5
v 3.5 4 3.5
v 3.5 6 3.5
v -3.5 10 2.5
v -3.5 11 2.5
v -2.5 1 2.5
v -2.5 6 2.5
v -2.5 10 2.5
v -2.5 11 2.5
v -2.5 12 2.5
v -1.5 4 2.5
v -1.5 6 2.5
v 0.5 1 2.5
v 0.5 4 2.5
v 0.5 6 2.5
v 0.5 10 2.5
v 0.5 11 2.5
v 0.5 12 2.5
v 1.5 10 2.5
v 1.5 11 2.5
v -2.5 12 1.5
v -2.5 13 1.5
v -1.5 0 1.5
v -1.5 1 1.5
v -0.5 0 1.5
v -0.5 1 1.5
v -0.5 12 1.5
v -0.5 13 1.5
v -2.5 13 0.5
v -2.5 14 0.5
v -1.5 13 0.5
v -1.5 14 0.5
v -1.5 0 -0.5
v -1.5 1 -0.5
v -0.5 0 -0.5
v -0.5 1 -0.5
v -2.5 14 -1.5
v -2.5 15 -1.5
v -1.5 14 -1.5
v -1.5 15 -1.5
v 0.5 4 -1.5
v 0.5 6 -1.5
v 1.5 4 -1.5
v 1.5 6 -1.5
v 0.5 4 1.5
v 0.5 6 1.5
v 1.5 4 1.5
v 1.5 6 1.5
v -1.5 0 0.5
v -1.5 1 0.5
v -0.5 0 0.5
v -0.5 1 0.5
v -1.5 0 -1.5
v -1.5 1 -1.5
v -0.5 0 -1.5
v -0.5 1 -1.5
v -3.5 10 -2.5
v -3.5 11 -2.5
v -2.5 1 -2.5
v -2.5 6 -2.5
v -2.5 10 -2.5
v -2.5 11 -2.5
v -2.5 15 -2.5
v -1.5 4 -2.5
v -1.5 6 -2.5
v -1.5 13 -2.5
v -1.5 15 -2.5
v -0.5 12 -2.5
v -0.5 13 -2.5
v 0.5 1 -2.5
v 0.5 4 -2.5
v 0.5 6 -2.5
v 0.5 10 -2.5
v 0.5 11 -2.5
v 0.5 12 -2.5
v 1.5 10 -2.5
v 1.5 11 -2.5
v -2.5 10 -3.5
v -2.5 11 -3.5
v -1.5 4 -3.5
v -1.5 6 -3.5
v 0.5 10 -3.5
v 0.5 11 -3.5
v 3.5 4 -3.5
v 3.5 6 -3.5
v -1.5 0 1.5
v -0.5 0 1.5
v -1.5 0 0.5
v -0.5 0 0.5
v -1.5 0 -0.5
v -0.5 0 -0.5
v -1.5 0 -1.5
v -0.5 0 -1.5
v -2.5 1 2.5
v 0.5 1 2.5
v -1.5 1 1.5
v -0.5 1 1.5
v -1.5 1 0.5
v -0.5 1 0.5
v 0.5 1 0.5
v -1.5 1 -0.5
v -0.5 1 -0.5
v 0.5 1 -0.5
v -1.5 1 -1.5
v -0.5 1 -1.5
v -2.5 1 -2.5
v 0.5 1 -2.5
v -1.5 4 3.5
v 3.5 4 3.5
v -1.5 4 2.5
v 0.5 4 2.5
v 0.5 4 1.5
v 1.5 4 1.5
v 3.5 4 1.5
v 0.5 4 -1.5
v 1.5 4 -1.5
v 3.5 4 -1.5
v -1.5 4 -2.5
v 0.5 4 -2.5
v -1.5 4 -3.5
v 3.5 4 -3.5
v -2.5 10 3.5
v 0.5 10 3.5
v -3.5 10 2.5
v -2.5 10 2.5
v 0.5 10 2.5
v 1.5 10 2.5
v -3.5 10 -2.5
v -2.5 10 -2.5
v 0.5 10 -2.5
v 1.5 10 -2.5
v -2.5 10 -3.5
v 0.5 10 -3.5
v -1.5 6 3.5
v 3.5 6 3.5
v -1.5 6 2.5
v 0.5 6 2.5
v 0.5 6 1.5
v 1.5 6 1.5
v 3.5 6 1.5
v 0.5 6 -1.5
v 1.5 6 -1.5
v 3.5 6 -1.5
v -1.5 6 -2.5
v 0.5 6 -2.5
v -1.5 6 -3.5
v 3.5 6 -3.5
v -2.5 11 3.5
v 0.5 11 3.5
v -3.5 11 2.5
v -2.5 11 2.5
v 0.5 11 2.5
v 1.5 11 2.5
v -3.5 11 -2.5
v -2.5 11 -2.5
v 0.5 11 -2.5
v 1.5 11 -2.5
v -2.5 11 -3.5
v 0.5 11 -3.5
v -2.5 12 2.5
v 0.5 12 2.5
v -2.5 12 1.5
v -0.5 12 1.5
v -0.5 12 -2.5
v 0.5 12 -2.5
v -2.5 13 1.5
v -0.5 13 1.5
v -2.5 13 0.5
v -1.5 13 0.5
v -1.5 13 -2.5
v -0.5 13 -2.5
v -2.5 14 0.5
v -1.5 14 0.5
v -2.5 14 -1.5
v -1.5 14 -1.5
v -2.5 15 -1.5
v -1.5 15 -1.5
v -2.5 15 -2.5
v -1.5 15 -2.5

# faces
f 3/3/1 2/3/1 1/3/1
f 4/3/1 2/3/1 3/3/1
f 7/2/1 6/2/1 5/2/1
f 8/2/1 6/2/1 7/2/1
f 10/1/1 8/1/1 7/1/1
f 11/1/1 8/1/1 10/1/1
f 13/3/1 10/3/1 9/3/1
f 14/3/1 10/3/1 13/3/1
f 15/3/1 12/3/1 11/3/1
f 16/3/1 12/3/1 15/3/1
f 17/3/1 15/3/1 14/3/1
f 18/3/1 15/3/1 17/3/1
f 19/3/1 15/3/1 18/3/1
f 20/3/1 15/3/1 19/3/1
f 21/3/1 15/3/1 20/3/1
f 22/3/1 15/3/1 21/3/1
f 23/3/1 15/3/1 22/3/1
f 24/3/1 15/3/1 23/3/1
f 29/4/1 26/4/1 25/4/1
f 30/4/1 26/4/1 29/4/1
f 31/4/1 28/4/1 27/4/1
f 32/4/1 28/4/1 31/4/1
f 37/2/1 34/2/1 33/2/1
f 38/2/1 34/2/1 37/2/1
f 39/2/1 36/2/1 35/2/1
f 40/2/1 36/2/1 39/2/1
f 43/1/1 42/1/1 41/1/1
f 44/1/1 42/1/1 43/1/1
f 45/3/2 46/3/2 47/3/2
f 47/3/2 46/3/2 48/3/2
f 48/3/2 46/3/2 49/3/2
f 49/3/2 46/3/2 50/3/2
f 51/4/2 52/4/2 55/4/2
f 55/4/2 52/4/2 56/4/2
f 53/4/2 54/4/2 57/4/2
f 57/4/2 54/4/2 58/4/2
f 59/3/2 60/3/2 61/3/2
f 61/3/2 60/3/2 62/3/2
f 63/2/2 64/2/2 67/2/2
f 67/2/2 64/2/2 68/2/2
f 65/2/2 66/2/2 69/2/2
f 69/2/2 66/2/2 70/2/2
f 68/2/2 64/2/2 72/2/2
f 64/4/2 65/4/2 73/4/2
f 72/2/2 64/2/2 73/2/2
f 65/2/2 69/2/2 74/2/2
f 73/4/2 65/4/2 74/4/2
f 74/2/2 69/2/2 75/2/2
f 72/1/2 73/1/2 77/1/2
f 75/1/2 76/1/2 77/1/2
f 74/1/2 75/1/2 77/1/2
f 73/1/2 74/1/2 77/1/2
f 71/1/2 72/1/2 77/1/2
f 77/1/2 76/1/2 78/1/2
f 78/1/2 76/1/2 79/1/2
f 79/1/2 76/1/2 80/1/2
f 71/1/2 77/1/2 81/1/2
f 77/4/2 78/4/2 81/4/2
f 78/1/2 79/1/2 82/1/2
f 81/4/2 78/4/2 82/4/2
f 79/4/2 80/4/2 83/4/2
f 82/1/2 79/1/2 83/1/2
f 80/1/2 76/1/2 84/1/2
f 83/4/2 80/4/2 84/4/2
f 82/1/2 83/1/2 86/1/2
f 81/1/2 82/1/2 86/1/2
f 83/1/2 84/1/2 86/1/2
f 71/1/2 81/1/2 86/1/2
f 84/1/2 76/1/2 87/1/2
f 86/1/2 84/1/2 87/1/2
f 85/3/2 86/3/2 89/3/2
f 89/3/2 86/3/2 90/3/2
f 87/3/2 88/3/2 91/3/2
f 91/3/2 88/3/2 92/3/2
f 90/3/2 91/3/2 93/3/2
f 93/3/2 91/3/2 94/3/2
f 95/3/2 96/3/2 97/3/2
f 97/3/2 96/3/2 98/3/2
f 99/2/2 100/2/2 103/2/2
f 100/1/2 101/1/2 104/1/2
f 103/2/2 100/2/2 104/2/2
f 101/2/2 102/2/2 105/2/2
f 104/1/2 101/1/2 105/1/2
f 105/2/2 102/2/2 106/2/2
f 111/3/3 108/3/3 107/3/3
f 112/3/3 108/3/3 111/3/3
f 113/2/3 110/2/3 109/2/3
f 114/2/3 110/2/3 113/2/3
f 119/3/3 116/3/3 115/3/3
f 120/3/3 116/3/3 119/3/3
f 122/2/3 118/2/3 117/2/3
f 123/1/3 119/1/3 118/1/3
f 123/2/3 118/2/3 122/2/3
f 124/2/3 122/2/3 117/2/3
f 125/2/3 122/2/3 124/2/3
f 126/1/3 119/1/3 123/1/3
f 127/1/3 119/1/3 126/1/3
f 128/3/3 121/3/3 120/3/3
f 129/3/3 121/3/3 128/3/3
f 130/3/3 128/3/3 127/3/3
f 131/3/3 128/3/3 130/3/3
f 136/4/3 135/4/3 134/4/3
f 137/4/3 135/4/3 136/4/3
f 138/3/3 133/3/3 132/3/3
f 139/3/3 133/3/3 138/3/3
f 142/3/3 141/3/3 140/3/3
f 143/3/3 141/3/3 142/3/3
f 146/4/3 145/4/3 144/4/3
f 147/4/3 145/4/3 146/4/3
f 150/3/3 149/3/3 148/3/3
f 151/3/3 149/3/3 150/3/3
f 154/2/3 153/2/3 152/2/3
f 155/2/3 153/2/3 154/2/3
f 156/2/4 157/2/4 158/2/4
f 158/2/4 157/2/4 159/2/4
f 160/4/4 161/4/4 162/4/4
f 162/4/4 161/4/4 163/4/4
f 164/4/4 165/4/4 166/4/4
f 166/4/4 165/4/4 167/4/4
f 168/3/4 169/3/4 172/3/4
f 172/3/4 169/3/4 173/3/4
f 170/2/4 171/2/4 175/2/4
f 171/1/4 172/1/4 176/1/4
f 175/2/4 171/2/4 176/2/4
f 173/3/4 174/3/4 177/3/4
f 177/3/4 174/3/4 178/3/4
f 173/3/4 177/3/4 179/3/4
f 179/3/4 177/3/4 180/3/4
f 170/2/4 175/2/4 181/2/4
f 181/2/4 175/2/4 182/2/4
f 176/1/4 172/1/4 183/1/4
f 183/1/4 172/1/4 184/1/4
f 173/3/4 179/3/4 185/3/4
f 185/3/4 179/3/4 186/3/4
f 184/3/4 185/3/4 187/3/4
f 187/3/4 185/3/4 188/3/4
f 189/3/4 190/3/4 193/3/4
f 193/3/4 190/3/4 194/3/4
f 191/2/4 192/2/4 195/2/4
f 195/2/4 192/2/4 196/2/4
f 199/4/5 198/4/5 197/4/5
f 200/4/5 198/4/5 199/4/5
f 203/4/5 202/4/5 201/4/5
f 204/4/5 202/4/5 203/4/5
f 207/2/5 206/2/5 205/2/5
f 208/2/5 206/2/5 207/2/5
f 209/2/5 207/2/5 205/2/5
f 210/2/5 206/2/5 208/2/5
f 211/2/5 206/2/5 210/2/5
f 212/2/5 209/2/5 205/2/5
f 212/2/5 210/2/5 209/2/5
f 213/4/5 211/4/5 210/4/5
f 213/2/5 210/2/5 212/2/5
f 214/4/5 211/4/5 213/4/5
f 215/2/5 212/2/5 205/2/5
f 216/2/5 214/2/5 213/2/5
f 217/2/5 215/2/5 205/2/5
f 217/2/5 216/2/5 215/2/5
f 218/2/5 214/2/5 216/2/5
f 218/2/5 216/2/5 217/2/5
f 221/2/5 220/2/5 219/2/5
f 222/2/5 220/2/5 221/2/5
f 223/2/5 220/2/5 222/2/5
f 224/2/5 220/2/5 223/2/5
f 225/2/5 220/2/5 224/2/5
f 227/1/5 225/1/5 224/1/5
f 228/1/5 225/1/5 227/1/5
f 230/2/5 227/2/5 226/2/5
f 230/2/5 228/2/5 227/2/5
f 231/2/5 230/2/5 229/2/5
f 232/2/5 228/2/5 230/2/5
f 232/2/5 230/2/5 231/2/5
f 236/3/5 234/3/5 233/3/5
f 237/3/5 234/3/5 236/3/5
f 239/3/5 236/3/5 235/3/5
f 240/3/5 236/3/5 239/3/5
f 241/3/5 238/3/5 237/3/5
f 242/3/5 238/3/5 241/3/5
f 243/3/5 241/3/5 240/3/5
f 244/3/5 241/3/5 243/3/5
f 245/2/6 246/2/6 247/2/6
f 247/2/6 246/2/6 248/2/6
f 248/2/6 246/2/6 249/2/6
f 249/2/6 246/2/6 250/2/6
f 250/2/6 246/2/6 251/2/6
f 250/1/6 251/1/6 253/1/6
f 253/1/6 251/1/6 254/1/6
f 252/2/6 253/2/6 256/2/6
f 253/2/6 254/2/6 256/2/6
f 255/2/6 256/2/6 257/2/6
f 256/2/6 254/2/6 258/2/6
f 257/2/6 256/2/6 258/2/6
f 259/3/6 260/3/6 262/3/6
f 262/3/6 260/3/6 263/3/6
f 261/3/6 262/3/6 265/3/6
f 265/3/6 262/3/6 266/3/6
f 263/3/6 264/3/6 267/3/6
f 267/3/6 264/3/6 268/3/6
f 266/3/6 267/3/6 269/3/6
f 269/3/6 267/3/6 270/3/6
f 271/3/6 272/3/6 273/3/6
f 273/3/6 272/3/6 274/3/6
f 274/3/6 272/3/6 275/3/6
f 275/3/6 272/3/6 276/3/6
f 277/3/6 278/3/6 279/3/6
f 279/3/6 278/3/6 280/3/6
f 280/3/6 278/3/6 281/3/6
f 281/3/6 278/3/6 282/3/6
f 283/3/6 284/3/6 285/3/6
f 285/3/6 284/3/6 286/3/6
f 287/3/6 288/3/6 289/3/6
f 289/3/6 288/3/6 290/3/6
