# MagicaVoxel @ Ephtracy

# material
mtllib mago.mtl
usemtl palette

# normals
vn -1 0 0
vn 1 0 0
vn 0 0 1
vn 0 0 -1
vn 0 -1 0
vn 0 1 0

# texcoords
vt 0.0488281 0.5
vt 0.158203 0.5
vt 0.681641 0.5
vt 0.685547 0.5
vt 0.994141 0.5

# verts
v -3.5 9 3.5
v -3.5 9 -3.5
v -3.5 10 3.5
v -3.5 10 -3.5
v -2.5 1 2.5
v -2.5 1 1.5
v -2.5 1 -2.5
v -2.5 2 2.5
v -2.5 2 1.5
v -2.5 2 -0.5
v -2.5 2 -1.5
v -2.5 3 -0.5
v -2.5 3 -1.5
v -2.5 4 1.5
v -2.5 4 0.5
v -2.5 5 1.5
v -2.5 5 0.5
v -2.5 6 2.5
v -2.5 6 -2.5
v -2.5 9 2.5
v -2.5 9 -2.5
v -2.5 10 2.5
v -2.5 10 1.5
v -2.5 10 -2.5
v -2.5 11 2.5
v -2.5 11 1.5
v -2.5 11 -2.5
v -1.5 0 1.5
v -1.5 0 0.5
v -1.5 0 -0.5
v -1.5 0 -1.5
v -1.5 1 1.5
v -1.5 1 0.5
v -1.5 1 -0.5
v -1.5 1 -1.5
v -1.5 4 3.5
v -1.5 4 2.5
v -1.5 4 -2.5
v -1.5 4 -3.5
v -1.5 5 3.5
v -1.5 5 2.5
v -1.5 6 3.5
v -1.5 6 2.5
v -1.5 6 -2.5
v -1.5 6 -3.5
v -1.5 11 1.5
v -1.5 11 -0.5
v -1.5 11 -1.5
v -1.5 12 1.5
v -1.5 12 0.5
v -1.5 12 -0.5
v -1.5 12 -1.5
v -1.5 13 0.5
v -1.5 13 -0.5
v 1.5 4 1.5
v 1.5 4 -1.5
v 1.5 6 1.5
v 1.5 6 -1.5
v -0.5 0 1.5
v -0.5 0 0.5
v -0.5 0 -0.5
v -0.5 0 -1.5
v -0.5 1 1.5
v -0.5 1 0.5
v -0.5 1 -0.5
v -0.5 1 -1.5
v -0.5 11 1.5
v -0.5 11 0.5
v -0.5 11 -0.5
v -0.5 11 -1.5
v -0.5 12 1.5
v -0.5 12 0.5
v -0.5 12 -0.5
v -0.5 12 -1.5
v -0.5 13 0.5
v -0.5 13 -0.5
v 0.5 1 2.5
v 0.5 1 1.5
v 0.5 1 -2.5
v 0.5 2 2.5
v 0.5 2 1.5
v 0.5 2 0.5
v 0.5 2 -0.5
v 0.5 3 0.5
v 0.5 3 -0.5
v 0.5 4 2.5
v 0.5 4 1.5
v 0.5 4 -1.5
v 0.5 4 -2.5
v 0.5 5 0.5
v 0.5 5 -0.5
v 0.5 6 2.5
v 0.5 6 1.5
v 0.5 6 0.5
v 0.5 6 -0.5
v 0.5 6 -1.5
v 0.5 6 -2.5
v 0.5 8 1.5
v 0.5 8 0.5
v 0.5 8 -0.5
v 0.5 8 -1.5
v 0.5 9 2.5
v 0.5 9 1.5
v 0.5 9 0.5
v 0.5 9 -0.5
v 0.5 9 -1.5
v 0.5 9 -2.5
v 0.5 10 2.5
v 0.5 10 1.5
v 0.5 10 0.5
v 0.5 10 -2.5
v 0.5 11 2.5
v 0.5 11 1.5
v 0.5 11 0.5
v 0.5 11 -2.5
v 1.5 9 3.5
v 1.5 9 -3.5
v 1.5 10 3.5
v 1.5 10 -3.5
v 3.5 4 3.5
v 3.5 4 1.5
v 3.5 4 -1.5
v 3.5 4 -3.5
v 3.5 5 3.5
v 3.5 5 2.5
v 3.5 5 -2.5
v 3.5 5 -3.5
v 3.5 6 3.5
v 3.5 6 2.5
v 3.5 6 1.5
v 3.5 6 -1.5
v 3.5 6 -2.5
v 3.5 6 -3.5
v -3.5 9 3.5
v -3.5 10 3.5
v -1.5 4 3.5
v -1.5 5 3.5
v -1.5 6 3.5
v -0.5 4 3.5
v -0.5 5 3.5
v 1.5 9 3.5
v 1.5 10 3.5
v 2.5 5 3.5
v 2.5 6 3.5
v 3.5 4 3.5
v 3.5 5 3.5
v 3.5 6 3.5
v -2.5 1 2.5
v -2.5 2 2.5
v -2.5 6 2.5
v -2.5 9 2.5
v -2.5 10 2.5
v -2.5 11 2.5
v -1.5 1 2.5
v -1.5 2 2.5
v -1.5 4 2.5
v -1.5 5 2.5
v -1.5 6 2.5
v -1.5 10 2.5
v -1.5 11 2.5
v -0.5 1 2.5
v -0.5 2 2.5
v -0.5 4 2.5
v 0.5 1 2.5
v 0.5 2 2.5
v 0.5 4 2.5
v 0.5 6 2.5
v 0.5 9 2.5
v 0.5 10 2.5
v 0.5 11 2.5
v -1.5 0 1.5
v -1.5 1 1.5
v -1.5 11 1.5
v -1.5 12 1.5
v -0.5 0 1.5
v -0.5 1 1.5
v -0.5 11 1.5
v -0.5 12 1.5
v -1.5 12 0.5
v -1.5 13 0.5
v -0.5 12 0.5
v -0.5 13 0.5
v -1.5 0 -0.5
v -1.5 1 -0.5
v -0.5 0 -0.5
v -0.5 1 -0.5
v 0.5 4 -1.5
v 0.5 6 -1.5
v 1.5 4 -1.5
v 1.5 6 -1.5
v 0.5 4 1.5
v 0.5 6 1.5
v 1.5 4 1.5
v 1.5 6 1.5
v -1.5 0 0.5
v -1.5 1 0.5
v -0.5 0 0.5
v -0.5 1 0.5
v -1.5 12 -0.5
v -1.5 13 -0.5
v -0.5 12 -0.5
v -0.5 13 -0.5
v -1.5 0 -1.5
v -1.5 1 -1.5
v -1.5 11 -1.5
v -1.5 12 -1.5
v -0.5 0 -1.5
v -0.5 1 -1.5
v -0.5 11 -1.5
v -0.5 12 -1.5
v -2.5 1 -2.5
v -2.5 6 -2.5
v -2.5 9 -2.5
v -2.5 10 -2.5
v -2.5 11 -2.5
v -1.5 1 -2.5
v -1.5 2 -2.5
v -1.5 4 -2.5
v -1.5 6 -2.5
v -0.5 1 -2.5
v -0.5 2 -2.5
v -0.5 4 -2.5
v 0.5 1 -2.5
v 0.5 4 -2.5
v 0.5 6 -2.5
v 0.5 9 -2.5
v 0.5 10 -2.5
v 0.5 11 -2.5
v -3.5 9 -3.5
v -3.5 10 -3.5
v -1.5 4 -3.5
v -1.5 6 -3.5
v -0.5 4 -3.5
v -0.5 5 -3.5
v 0.5 4 -3.5
v 0.5 5 -3.5
v 1.5 9 -3.5
v 1.5 10 -3.5
v 2.5 5 -3.5
v 2.5 6 -3.5
v 3.5 4 -3.5
v 3.5 5 -3.5
v 3.5 6 -3.5
v -1.5 0 1.5
v -0.5 0 1.5
v -1.5 0 0.5
v -0.5 0 0.5
v -1.5 0 -0.5
v -0.5 0 -0.5
v -1.5 0 -1.5
v -0.5 0 -1.5
v -2.5 1 2.5
v -1.5 1 2.5
v -0.5 1 2.5
v 0.5 1 2.5
v -2.5 1 1.5
v -1.5 1 1.5
v -0.5 1 1.5
v 0.5 1 1.5
v -1.5 1 0.5
v -0.5 1 0.5
v -1.5 1 -0.5
v -0.5 1 -0.5
v -1.5 1 -1.5
v -0.5 1 -1.5
v -2.5 1 -2.5
v -1.5 1 -2.5
v -0.5 1 -2.5
v 0.5 1 -2.5
v -1.5 4 3.5
v -0.5 4 3.5
v 3.5 4 3.5
v -1.5 4 2.5
v -0.5 4 2.5
v 0.5 4 2.5
v 0.5 4 1.5
v 1.5 4 1.5
v 3.5 4 1.5
v 0.5 4 -1.5
v 1.5 4 -1.5
v 3.5 4 -1.5
v -1.5 4 -2.5
v -0.5 4 -2.5
v 0.5 4 -2.5
v -1.5 4 -3.5
v -0.5 4 -3.5
v 0.5 4 -3.5
v 3.5 4 -3.5
v -3.5 9 3.5
v 1.5 9 3.5
v -2.5 9 2.5
v 0.5 9 2.5
v 0.5 9 1.5
v 0.5 9 0.5
v 0.5 9 -0.5
v 0.5 9 -1.5
v -2.5 9 -2.5
v 0.5 9 -2.5
v -3.5 9 -3.5
v 1.5 9 -3.5
v -1.5 6 3.5
v 2.5 6 3.5
v 3.5 6 3.5
v -1.5 6 2.5
v 0.5 6 2.5
v 2.5 6 2.5
v 3.5 6 2.5
v 0.5 6 1.5
v 1.5 6 1.5
v 3.5 6 1.5
v 0.5 6 -1.5
v 1.5 6 -1.5
v 3.5 6 -1.5
v -1.5 6 -2.5
v 0.5 6 -2.5
v 2.5 6 -2.5
v 3.5 6 -2.5
v -1.5 6 -3.5
v 2.5 6 -3.5
v 3.5 6 -3.5
v -3.5 10 3.5
v 1.5 10 3.5
v -2.5 10 2.5
v -1.5 10 2.5
v 0.5 10 2.5
v -2.5 10 1.5
v 0.5 10 1.5
v 0.5 10 0.5
v -2.5 10 -2.5
v 0.5 10 -2.5
v -3.5 10 -3.5
v 1.5 10 -3.5
v -2.5 11 2.5
v -1.5 11 2.5
v 0.5 11 2.5
v -2.5 11 1.5
v -1.5 11 1.5
v -0.5 11 1.5
v 0.5 11 1.5
v -0.5 11 0.5
v 0.5 11 0.5
v -1.5 11 -0.5
v -0.5 11 -0.5
v -1.5 11 -1.5
v -0.5 11 -1.5
v -2.5 11 -2.5
v 0.5 11 -2.5
v -1.5 12 1.5
v -0.5 12 1.5
v -1.5 12 0.5
v -0.5 12 0.5
v -1.5 12 -0.5
v -0.5 12 -0.5
v -1.5 12 -1.5
v -0.5 12 -1.5
v -1.5 13 0.5
v -0.5 13 0.5
v -1.5 13 -0.5
v -0.5 13 -0.5

# faces
f 3/4/1 2/4/1 1/4/1
f 4/4/1 2/4/1 3/4/1
f 8/2/1 6/2/1 5/2/1
f 9/3/1 7/3/1 6/3/1
f 9/2/1 6/2/1 8/2/1
f 10/3/1 7/3/1 9/3/1
f 11/3/1 7/3/1 10/3/1
f 12/3/1 9/3/1 8/3/1
f 12/3/1 10/3/1 9/3/1
f 12/2/1 11/2/1 10/2/1
f 13/3/1 7/3/1 11/3/1
f 13/2/1 11/2/1 12/2/1
f 14/3/1 12/3/1 8/3/1
f 14/3/1 13/3/1 12/3/1
f 15/3/1 13/3/1 14/3/1
f 16/3/1 14/3/1 8/3/1
f 16/2/1 15/2/1 14/2/1
f 17/3/1 13/3/1 15/3/1
f 17/2/1 15/2/1 16/2/1
f 18/3/1 16/3/1 8/3/1
f 18/3/1 17/3/1 16/3/1
f 19/3/1 7/3/1 13/3/1
f 19/3/1 17/3/1 18/3/1
f 19/3/1 13/3/1 17/3/1
f 20/1/1 19/1/1 18/1/1
f 21/1/1 19/1/1 20/1/1
f 25/2/1 23/2/1 22/2/1
f 26/4/1 24/4/1 23/4/1
f 26/2/1 23/2/1 25/2/1
f 27/4/1 24/4/1 26/4/1
f 32/5/1 29/5/1 28/5/1
f 33/5/1 29/5/1 32/5/1
f 34/5/1 31/5/1 30/5/1
f 35/5/1 31/5/1 34/5/1
f 40/2/1 37/2/1 36/2/1
f 41/2/1 37/2/1 40/2/1
f 42/3/1 41/3/1 40/3/1
f 43/3/1 41/3/1 42/3/1
f 44/3/1 39/3/1 38/3/1
f 45/3/1 39/3/1 44/3/1
f 49/4/1 47/4/1 46/4/1
f 50/4/1 47/4/1 49/4/1
f 51/2/1 48/2/1 47/2/1
f 51/4/1 47/4/1 50/4/1
f 52/2/1 48/2/1 51/2/1
f 53/4/1 51/4/1 50/4/1
f 54/4/1 51/4/1 53/4/1
f 57/1/1 56/1/1 55/1/1
f 58/1/1 56/1/1 57/1/1
f 59/5/2 60/5/2 63/5/2
f 63/5/2 60/5/2 64/5/2
f 61/5/2 62/5/2 65/5/2
f 65/5/2 62/5/2 66/5/2
f 67/4/2 68/4/2 71/4/2
f 68/4/2 69/4/2 71/4/2
f 71/4/2 69/4/2 72/4/2
f 69/2/2 70/2/2 73/2/2
f 72/4/2 69/4/2 73/4/2
f 73/2/2 70/2/2 74/2/2
f 72/4/2 73/4/2 75/4/2
f 75/4/2 73/4/2 76/4/2
f 77/2/2 78/2/2 80/2/2
f 78/3/2 79/3/2 81/3/2
f 80/2/2 78/2/2 81/2/2
f 81/3/2 79/3/2 82/3/2
f 82/3/2 79/3/2 83/3/2
f 80/3/2 81/3/2 84/3/2
f 81/3/2 82/3/2 84/3/2
f 82/2/2 83/2/2 84/2/2
f 83/3/2 79/3/2 85/3/2
f 84/2/2 83/2/2 85/2/2
f 80/3/2 84/3/2 86/3/2
f 84/3/2 85/3/2 86/3/2
f 86/3/2 85/3/2 87/3/2
f 85/3/2 79/3/2 88/3/2
f 87/3/2 85/3/2 88/3/2
f 88/3/2 79/3/2 89/3/2
f 87/3/2 88/3/2 90/3/2
f 90/3/2 88/3/2 91/3/2
f 87/3/2 90/3/2 93/3/2
f 90/2/2 91/2/2 94/2/2
f 93/3/2 90/3/2 94/3/2
f 91/3/2 88/3/2 95/3/2
f 94/2/2 91/2/2 95/2/2
f 95/3/2 88/3/2 96/3/2
f 93/1/2 94/1/2 98/1/2
f 96/1/2 97/1/2 98/1/2
f 95/1/2 96/1/2 98/1/2
f 94/1/2 95/1/2 98/1/2
f 92/1/2 93/1/2 98/1/2
f 98/1/2 97/1/2 99/1/2
f 99/1/2 97/1/2 100/1/2
f 100/1/2 97/1/2 101/1/2
f 92/1/2 98/1/2 102/1/2
f 98/5/2 99/5/2 103/5/2
f 102/1/2 98/1/2 103/1/2
f 99/1/2 100/1/2 104/1/2
f 103/5/2 99/5/2 104/5/2
f 100/5/2 101/5/2 105/5/2
f 104/1/2 100/1/2 105/1/2
f 101/1/2 97/1/2 106/1/2
f 105/5/2 101/5/2 106/5/2
f 106/1/2 97/1/2 107/1/2
f 108/4/2 109/4/2 112/4/2
f 109/2/2 110/2/2 113/2/2
f 112/4/2 109/4/2 113/4/2
f 110/4/2 111/4/2 114/4/2
f 113/2/2 110/2/2 114/2/2
f 114/4/2 111/4/2 115/4/2
f 116/4/2 117/4/2 118/4/2
f 118/4/2 117/4/2 119/4/2
f 120/3/2 121/3/2 124/3/2
f 124/3/2 121/3/2 125/3/2
f 122/3/2 123/3/2 126/3/2
f 126/3/2 123/3/2 127/3/2
f 124/2/2 125/2/2 128/2/2
f 125/3/2 121/3/2 129/3/2
f 128/2/2 125/2/2 129/2/2
f 121/1/2 122/1/2 130/1/2
f 129/3/2 121/3/2 130/3/2
f 122/3/2 126/3/2 131/3/2
f 130/1/2 122/1/2 131/1/2
f 126/2/2 127/2/2 132/2/2
f 131/3/2 126/3/2 132/3/2
f 132/2/2 127/2/2 133/2/2
f 139/2/3 137/2/3 136/2/3
f 140/3/3 138/3/3 137/3/3
f 140/2/3 137/2/3 139/2/3
f 141/4/3 135/4/3 134/4/3
f 142/4/3 135/4/3 141/4/3
f 143/3/3 138/3/3 140/3/3
f 143/3/3 140/3/3 139/3/3
f 144/3/3 138/3/3 143/3/3
f 145/3/3 143/3/3 139/3/3
f 146/2/3 144/2/3 143/2/3
f 146/3/3 143/3/3 145/3/3
f 147/2/3 144/2/3 146/2/3
f 154/2/3 149/2/3 148/2/3
f 155/3/3 150/3/3 149/3/3
f 155/2/3 149/2/3 154/2/3
f 156/3/3 150/3/3 155/3/3
f 157/3/3 150/3/3 156/3/3
f 158/1/3 151/1/3 150/1/3
f 158/3/3 150/3/3 157/3/3
f 159/2/3 153/2/3 152/2/3
f 160/2/3 153/2/3 159/2/3
f 161/3/3 155/3/3 154/3/3
f 161/3/3 156/3/3 155/3/3
f 162/3/3 156/3/3 161/3/3
f 163/3/3 156/3/3 162/3/3
f 164/2/3 162/2/3 161/2/3
f 165/3/3 163/3/3 162/3/3
f 165/2/3 162/2/3 164/2/3
f 166/3/3 163/3/3 165/3/3
f 167/1/3 151/1/3 158/1/3
f 168/1/3 151/1/3 167/1/3
f 169/4/3 160/4/3 159/4/3
f 170/4/3 160/4/3 169/4/3
f 175/5/3 172/5/3 171/5/3
f 176/5/3 172/5/3 175/5/3
f 177/4/3 174/4/3 173/4/3
f 178/4/3 174/4/3 177/4/3
f 181/4/3 180/4/3 179/4/3
f 182/4/3 180/4/3 181/4/3
f 185/5/3 184/5/3 183/5/3
f 186/5/3 184/5/3 185/5/3
f 189/3/3 188/3/3 187/3/3
f 190/3/3 188/3/3 189/3/3
f 191/3/4 192/3/4 193/3/4
f 193/3/4 192/3/4 194/3/4
f 195/5/4 196/5/4 197/5/4
f 197/5/4 196/5/4 198/5/4
f 199/4/4 200/4/4 201/4/4
f 201/4/4 200/4/4 202/4/4
f 203/5/4 204/5/4 207/5/4
f 207/5/4 204/5/4 208/5/4
f 205/2/4 206/2/4 209/2/4
f 209/2/4 206/2/4 210/2/4
f 211/3/4 212/3/4 216/3/4
f 216/3/4 212/3/4 217/3/4
f 217/3/4 212/3/4 218/3/4
f 212/1/4 213/1/4 219/1/4
f 218/3/4 212/3/4 219/3/4
f 216/2/4 217/2/4 220/2/4
f 217/3/4 218/3/4 221/3/4
f 220/2/4 217/2/4 221/2/4
f 221/3/4 218/3/4 222/3/4
f 220/3/4 221/3/4 223/3/4
f 221/3/4 222/3/4 223/3/4
f 223/3/4 222/3/4 224/3/4
f 219/1/4 213/1/4 225/1/4
f 225/1/4 213/1/4 226/1/4
f 214/4/4 215/4/4 227/4/4
f 227/4/4 215/4/4 228/4/4
f 231/3/4 232/3/4 233/3/4
f 233/3/4 232/3/4 234/3/4
f 233/2/4 234/2/4 235/2/4
f 234/3/4 232/3/4 236/3/4
f 235/2/4 234/2/4 236/2/4
f 229/4/4 230/4/4 237/4/4
f 237/4/4 230/4/4 238/4/4
f 236/3/4 232/3/4 239/3/4
f 235/3/4 236/3/4 239/3/4
f 239/3/4 232/3/4 240/3/4
f 235/3/4 239/3/4 241/3/4
f 239/2/4 240/2/4 242/2/4
f 241/3/4 239/3/4 242/3/4
f 242/2/4 240/2/4 243/2/4
f 246/5/5 245/5/5 244/5/5
f 247/5/5 245/5/5 246/5/5
f 250/5/5 249/5/5 248/5/5
f 251/5/5 249/5/5 250/5/5
f 256/2/5 253/2/5 252/2/5
f 257/3/5 254/3/5 253/3/5
f 257/2/5 253/2/5 256/2/5
f 258/2/5 255/2/5 254/2/5
f 258/3/5 254/3/5 257/3/5
f 259/2/5 255/2/5 258/2/5
f 260/3/5 257/3/5 256/3/5
f 261/3/5 259/3/5 258/3/5
f 262/3/5 260/3/5 256/3/5
f 262/3/5 261/3/5 260/3/5
f 263/3/5 259/3/5 261/3/5
f 263/3/5 261/3/5 262/3/5
f 264/3/5 262/3/5 256/3/5
f 265/3/5 259/3/5 263/3/5
f 266/3/5 264/3/5 256/3/5
f 267/2/5 265/2/5 264/2/5
f 267/3/5 264/3/5 266/3/5
f 268/3/5 259/3/5 265/3/5
f 268/2/5 265/2/5 267/2/5
f 269/3/5 259/3/5 268/3/5
f 273/2/5 271/2/5 270/2/5
f 274/3/5 272/3/5 271/3/5
f 274/2/5 271/2/5 273/2/5
f 275/3/5 272/3/5 274/3/5
f 276/3/5 272/3/5 275/3/5
f 277/3/5 272/3/5 276/3/5
f 278/3/5 272/3/5 277/3/5
f 280/1/5 278/1/5 277/1/5
f 281/1/5 278/1/5 280/1/5
f 284/3/5 280/3/5 279/3/5
f 284/3/5 281/3/5 280/3/5
f 285/3/5 283/3/5 282/3/5
f 286/2/5 284/2/5 283/2/5
f 286/3/5 283/3/5 285/3/5
f 287/3/5 281/3/5 284/3/5
f 287/2/5 284/2/5 286/2/5
f 288/3/5 281/3/5 287/3/5
f 291/4/5 290/4/5 289/4/5
f 292/4/5 290/4/5 291/4/5
f 293/4/5 290/4/5 292/4/5
f 294/4/5 290/4/5 293/4/5
f 295/4/5 290/4/5 294/4/5
f 296/4/5 290/4/5 295/4/5
f 297/4/5 291/4/5 289/4/5
f 298/4/5 290/4/5 296/4/5
f 299/4/5 297/4/5 289/4/5
f 299/4/5 298/4/5 297/4/5
f 300/4/5 290/4/5 298/4/5
f 300/4/5 298/4/5 299/4/5
f 301/3/6 302/3/6 304/3/6
f 304/3/6 302/3/6 305/3/6
f 302/2/6 303/2/6 306/2/6
f 305/3/6 302/3/6 306/3/6
f 306/2/6 303/2/6 307/2/6
f 305/3/6 306/3/6 308/3/6
f 306/3/6 307/3/6 308/3/6
f 308/3/6 307/3/6 309/3/6
f 309/3/6 307/3/6 310/3/6
f 309/1/6 310/1/6 312/1/6
f 312/1/6 310/1/6 313/1/6
f 311/3/6 312/3/6 315/3/6
f 312/3/6 313/3/6 315/3/6
f 315/3/6 313/3/6 316/3/6
f 316/3/6 313/3/6 317/3/6
f 314/3/6 315/3/6 318/3/6
f 315/3/6 316/3/6 318/3/6
f 316/2/6 317/2/6 319/2/6
f 318/3/6 316/3/6 319/3/6
f 319/2/6 317/2/6 320/2/6
f 321/4/6 322/4/6 323/4/6
f 323/4/6 322/4/6 324/4/6
f 324/4/6 322/4/6 325/4/6
f 321/4/6 323/4/6 326/4/6
f 325/4/6 322/4/6 327/4/6
f 327/4/6 322/4/6 328/4/6
f 321/4/6 326/4/6 329/4/6
f 328/4/6 322/4/6 330/4/6
f 321/4/6 329/4/6 331/4/6
f 329/4/6 330/4/6 331/4/6
f 330/4/6 322/4/6 332/4/6
f 331/4/6 330/4/6 332/4/6
f 333/2/6 334/2/6 336/2/6
f 334/4/6 335/4/6 337/4/6
f 336/2/6 334/2/6 337/2/6
f 337/4/6 335/4/6 338/4/6
f 338/4/6 335/4/6 339/4/6
f 338/2/6 339/2/6 340/2/6
f 340/2/6 339/2/6 341/2/6
f 336/4/6 337/4/6 342/4/6
f 340/4/6 341/4/6 343/4/6
f 336/4/6 342/4/6 344/4/6
f 343/4/6 341/4/6 345/4/6
f 336/4/6 344/4/6 346/4/6
f 344/4/6 345/4/6 346/4/6
f 345/4/6 341/4/6 347/4/6
f 346/4/6 345/4/6 347/4/6
f 348/4/6 349/4/6 350/4/6
f 350/4/6 349/4/6 351/4/6
f 352/2/6 353/2/6 354/2/6
f 354/2/6 353/2/6 355/2/6
f 356/4/6 357/4/6 358/4/6
f 358/4/6 357/4/6 359/4/6
